<svg width="329" height="318" viewBox="0 0 329 318" fill="none" xmlns="http://www.w3.org/2000/svg">
<g clip-path="url(#clip0_106_33)">
<path fill-rule="evenodd" clip-rule="evenodd" d="M136.633 0H191.621L248.22 161.911H188.572L175.29 109.114C186.49 104.671 194.409 93.7379 194.409 80.9556C194.409 64.2311 180.852 50.6732 164.127 50.6732C147.403 50.6732 133.845 64.2311 133.845 80.9556C133.845 93.7379 141.764 104.671 152.964 109.114L139.682 161.911H80.0338L136.633 0Z" fill="#003399"/>
<path d="M244.873 285.5L251.326 296.406H251.576L258.061 285.5H265.701L255.936 301.5L265.92 317.5H258.139L251.576 306.578H251.326L244.764 317.5H237.014L247.029 301.5L237.201 285.5H244.873Z" fill="#003399"/>
<path d="M209.828 317.5V285.5H231.391V291.078H216.594V298.703H230.281V304.281H216.594V311.922H231.453V317.5H209.828Z" fill="#003399"/>
<path d="M187.4 317.5H176.056V285.5H187.494C190.713 285.5 193.483 286.141 195.806 287.422C198.129 288.693 199.916 290.521 201.166 292.906C202.426 295.292 203.056 298.146 203.056 301.469C203.056 304.802 202.426 307.667 201.166 310.062C199.916 312.458 198.119 314.297 195.775 315.578C193.442 316.859 190.65 317.5 187.4 317.5ZM182.822 311.703H187.119C189.119 311.703 190.801 311.349 192.166 310.641C193.541 309.922 194.572 308.812 195.259 307.312C195.957 305.802 196.306 303.854 196.306 301.469C196.306 299.104 195.957 297.172 195.259 295.672C194.572 294.172 193.546 293.068 192.181 292.359C190.817 291.651 189.134 291.297 187.134 291.297H182.822V311.703Z" fill="#003399"/>
<path d="M168.707 285.5V317.5H162.863L148.941 297.359H148.707V317.5H141.941V285.5H147.878L161.691 305.625H161.972V285.5H168.707Z" fill="#003399"/>
<path d="M134.615 285.5V317.5H127.849V285.5H134.615Z" fill="#003399"/>
<path d="M108.579 285.5V317.5H101.813V285.5H108.579Z" fill="#003399"/>
<path d="M72.6548 317.5H65.4048L76.4517 285.5H85.1704L96.2017 317.5H88.9517L80.936 292.812H80.686L72.6548 317.5ZM72.2017 304.922H89.3267V310.203H72.2017V304.922Z" fill="#003399"/>
<path d="M307.858 267.5V235.5H329.42V241.078H314.623V248.703H328.311V254.281H314.623V261.922H329.483V267.5H307.858Z" fill="#003399"/>
<path d="M301.246 246.703H294.402C294.277 245.818 294.022 245.031 293.637 244.344C293.251 243.646 292.757 243.052 292.152 242.562C291.548 242.073 290.85 241.698 290.059 241.438C289.277 241.177 288.429 241.047 287.512 241.047C285.856 241.047 284.413 241.458 283.184 242.281C281.955 243.094 281.001 244.281 280.324 245.844C279.647 247.396 279.309 249.281 279.309 251.5C279.309 253.781 279.647 255.698 280.324 257.25C281.012 258.802 281.97 259.974 283.199 260.766C284.429 261.557 285.85 261.953 287.465 261.953C288.371 261.953 289.21 261.833 289.981 261.594C290.762 261.354 291.455 261.005 292.059 260.547C292.663 260.078 293.163 259.51 293.559 258.844C293.965 258.177 294.246 257.417 294.402 256.562L301.246 256.594C301.069 258.063 300.626 259.479 299.918 260.844C299.22 262.198 298.277 263.411 297.09 264.484C295.913 265.547 294.507 266.391 292.871 267.016C291.246 267.63 289.408 267.938 287.356 267.938C284.501 267.938 281.949 267.292 279.699 266C277.46 264.708 275.689 262.839 274.387 260.391C273.095 257.943 272.449 254.979 272.449 251.5C272.449 248.01 273.106 245.042 274.418 242.594C275.731 240.146 277.512 238.281 279.762 237C282.012 235.708 284.543 235.062 287.356 235.062C289.21 235.062 290.929 235.323 292.512 235.844C294.106 236.365 295.517 237.125 296.746 238.125C297.975 239.115 298.975 240.328 299.746 241.766C300.527 243.203 301.027 244.849 301.246 246.703Z" fill="#003399"/>
<path d="M242.377 267.5V235.5H255.002C257.419 235.5 259.481 235.932 261.189 236.797C262.908 237.651 264.215 238.865 265.111 240.438C266.017 242 266.471 243.839 266.471 245.953C266.471 248.078 266.012 249.906 265.096 251.438C264.179 252.958 262.851 254.125 261.111 254.938C259.382 255.75 257.288 256.156 254.83 256.156H246.377V250.719H253.736C255.028 250.719 256.101 250.542 256.955 250.188C257.809 249.833 258.445 249.302 258.861 248.594C259.288 247.885 259.502 247.005 259.502 245.953C259.502 244.891 259.288 243.995 258.861 243.266C258.445 242.536 257.804 241.984 256.939 241.609C256.085 241.224 255.007 241.031 253.705 241.031H249.142V267.5H242.377ZM259.658 252.938L267.611 267.5H260.142L252.361 252.938H259.658Z" fill="#003399"/>
<path d="M228.285 235.5H235.051V256.281C235.051 258.615 234.493 260.656 233.379 262.406C232.274 264.156 230.728 265.521 228.738 266.5C226.748 267.469 224.431 267.953 221.785 267.953C219.129 267.953 216.806 267.469 214.816 266.5C212.827 265.521 211.28 264.156 210.176 262.406C209.071 260.656 208.519 258.615 208.519 256.281V235.5H215.285V255.703C215.285 256.922 215.551 258.005 216.082 258.953C216.623 259.901 217.384 260.646 218.363 261.188C219.342 261.729 220.483 262 221.785 262C223.097 262 224.238 261.729 225.207 261.188C226.186 260.646 226.941 259.901 227.472 258.953C228.014 258.005 228.285 256.922 228.285 255.703V235.5Z" fill="#003399"/>
<path d="M201.748 251.5C201.748 254.99 201.086 257.958 199.763 260.406C198.451 262.854 196.659 264.724 194.388 266.016C192.128 267.297 189.586 267.938 186.763 267.938C183.919 267.938 181.367 267.292 179.107 266C176.847 264.708 175.06 262.839 173.748 260.391C172.435 257.943 171.779 254.979 171.779 251.5C171.779 248.01 172.435 245.042 173.748 242.594C175.06 240.146 176.847 238.281 179.107 237C181.367 235.708 183.919 235.062 186.763 235.062C189.586 235.062 192.128 235.708 194.388 237C196.659 238.281 198.451 240.146 199.763 242.594C201.086 245.042 201.748 248.01 201.748 251.5ZM194.888 251.5C194.888 249.24 194.55 247.333 193.873 245.781C193.206 244.229 192.263 243.052 191.044 242.25C189.826 241.448 188.399 241.047 186.763 241.047C185.128 241.047 183.701 241.448 182.482 242.25C181.263 243.052 180.315 244.229 179.638 245.781C178.972 247.333 178.638 249.24 178.638 251.5C178.638 253.76 178.972 255.667 179.638 257.219C180.315 258.771 181.263 259.948 182.482 260.75C183.701 261.552 185.128 261.953 186.763 261.953C188.399 261.953 189.826 261.552 191.044 260.75C192.263 259.948 193.206 258.771 193.873 257.219C194.55 255.667 194.888 253.76 194.888 251.5Z" fill="#003399"/>
<path d="M159.109 244.703C158.984 243.443 158.447 242.464 157.499 241.766C156.551 241.068 155.265 240.719 153.64 240.719C152.536 240.719 151.603 240.875 150.843 241.188C150.083 241.49 149.499 241.911 149.093 242.453C148.697 242.995 148.499 243.609 148.499 244.297C148.478 244.87 148.598 245.37 148.859 245.797C149.129 246.224 149.499 246.594 149.968 246.906C150.437 247.208 150.978 247.474 151.593 247.703C152.208 247.922 152.864 248.109 153.562 248.266L156.437 248.953C157.833 249.266 159.114 249.682 160.281 250.203C161.447 250.724 162.458 251.365 163.312 252.125C164.166 252.885 164.827 253.781 165.296 254.812C165.775 255.844 166.02 257.026 166.031 258.359C166.02 260.318 165.52 262.016 164.531 263.453C163.551 264.88 162.135 265.99 160.281 266.781C158.437 267.563 156.213 267.953 153.609 267.953C151.025 267.953 148.775 267.557 146.859 266.766C144.952 265.974 143.463 264.802 142.39 263.25C141.327 261.688 140.77 259.755 140.718 257.453H147.265C147.338 258.526 147.645 259.422 148.187 260.141C148.739 260.849 149.473 261.385 150.39 261.75C151.317 262.104 152.364 262.281 153.531 262.281C154.676 262.281 155.671 262.115 156.515 261.781C157.369 261.448 158.031 260.984 158.499 260.391C158.968 259.797 159.202 259.115 159.202 258.344C159.202 257.625 158.989 257.021 158.562 256.531C158.145 256.042 157.531 255.625 156.718 255.281C155.916 254.938 154.932 254.625 153.765 254.344L150.281 253.469C147.583 252.813 145.452 251.786 143.89 250.391C142.327 248.995 141.551 247.115 141.562 244.75C141.551 242.813 142.067 241.12 143.109 239.672C144.161 238.224 145.603 237.094 147.437 236.281C149.27 235.469 151.353 235.062 153.687 235.062C156.062 235.062 158.135 235.469 159.906 236.281C161.687 237.094 163.072 238.224 164.062 239.672C165.051 241.12 165.562 242.797 165.593 244.703H159.109Z" fill="#003399"/>
<path d="M122.456 235.5V267.5H116.612L102.69 247.359H102.456V267.5H95.6902V235.5H101.628L115.44 255.625H115.721V235.5H122.456Z" fill="#003399"/>
<path d="M66.9888 267.5V235.5H88.5513V241.078H73.7544V248.703H87.4419V254.281H73.7544V261.922H88.6138V267.5H66.9888Z" fill="#003399"/>
<path d="M36.7405 267.5V235.5H49.3655C51.7926 235.5 53.8603 235.964 55.5686 236.891C57.2769 237.807 58.579 239.083 59.4749 240.719C60.3811 242.344 60.8342 244.219 60.8342 246.344C60.8342 248.469 60.3759 250.344 59.4592 251.969C58.5426 253.594 57.2144 254.859 55.4749 255.766C53.7457 256.672 51.6519 257.125 49.1936 257.125H41.1467V251.703H48.0999C49.4019 251.703 50.4749 251.479 51.3186 251.031C52.1728 250.573 52.8082 249.943 53.2249 249.141C53.6519 248.328 53.8655 247.396 53.8655 246.344C53.8655 245.281 53.6519 244.354 53.2249 243.562C52.8082 242.76 52.1728 242.141 51.3186 241.703C50.4644 241.255 49.3811 241.031 48.0686 241.031H43.5061V267.5H36.7405Z" fill="#003399"/>
<path d="M29.9688 251.5C29.9688 254.99 29.3073 257.958 27.9844 260.406C26.6719 262.854 24.8802 264.724 22.6094 266.016C20.349 267.297 17.8073 267.938 14.9844 267.938C12.1406 267.938 9.58854 267.292 7.32812 266C5.06771 264.708 3.28125 262.839 1.96875 260.391C0.65625 257.943 0 254.979 0 251.5C0 248.01 0.65625 245.042 1.96875 242.594C3.28125 240.146 5.06771 238.281 7.32812 237C9.58854 235.708 12.1406 235.062 14.9844 235.062C17.8073 235.062 20.349 235.708 22.6094 237C24.8802 238.281 26.6719 240.146 27.9844 242.594C29.3073 245.042 29.9688 248.01 29.9688 251.5ZM23.1094 251.5C23.1094 249.24 22.7708 247.333 22.0938 245.781C21.4271 244.229 20.4844 243.052 19.2656 242.25C18.0469 241.448 16.6198 241.047 14.9844 241.047C13.349 241.047 11.9219 241.448 10.7031 242.25C9.48438 243.052 8.53646 244.229 7.85938 245.781C7.19271 247.333 6.85938 249.24 6.85938 251.5C6.85938 253.76 7.19271 255.667 7.85938 257.219C8.53646 258.771 9.48438 259.948 10.7031 260.75C11.9219 261.552 13.349 261.953 14.9844 261.953C16.6198 261.953 18.0469 261.552 19.2656 260.75C20.4844 259.948 21.4271 258.771 22.0938 257.219C22.7708 255.667 23.1094 253.76 23.1094 251.5Z" fill="#003399"/>
<path d="M289.767 185.5V217.5H283.923L270.001 197.359H269.767V217.5H263.001V185.5H268.938L282.751 205.625H283.032V185.5H289.767Z" fill="#003399"/>
<path d="M233.843 217.5H226.593L237.639 185.5H246.358L257.389 217.5H250.139L242.124 192.813H241.874L233.843 217.5ZM233.389 204.922H250.514V210.203H233.389V204.922Z" fill="#003399"/>
<path d="M199.625 217.5V185.5H221.188V191.078H206.391V198.703H220.079V204.281H206.391V211.922H221.25V217.5H199.625Z" fill="#003399"/>
<path d="M169.377 217.5V185.5H182.002C184.429 185.5 186.497 185.964 188.205 186.891C189.914 187.807 191.216 189.083 192.112 190.719C193.018 192.344 193.471 194.219 193.471 196.344C193.471 198.469 193.013 200.344 192.096 201.969C191.179 203.594 189.851 204.859 188.112 205.766C186.382 206.672 184.289 207.125 181.83 207.125H173.783V201.703H180.737C182.039 201.703 183.112 201.479 183.955 201.031C184.809 200.573 185.445 199.943 185.862 199.141C186.289 198.328 186.502 197.396 186.502 196.344C186.502 195.281 186.289 194.354 185.862 193.562C185.445 192.76 184.809 192.141 183.955 191.703C183.101 191.255 182.018 191.031 180.705 191.031H176.143V217.5H169.377Z" fill="#003399"/>
<path d="M162.606 201.5C162.606 204.99 161.944 207.958 160.621 210.406C159.309 212.854 157.517 214.724 155.246 216.016C152.986 217.297 150.444 217.938 147.621 217.938C144.777 217.938 142.225 217.292 139.965 216C137.705 214.708 135.918 212.839 134.606 210.391C133.293 207.943 132.637 204.979 132.637 201.5C132.637 198.01 133.293 195.042 134.606 192.594C135.918 190.146 137.705 188.281 139.965 187C142.225 185.708 144.777 185.062 147.621 185.062C150.444 185.062 152.986 185.708 155.246 187C157.517 188.281 159.309 190.146 160.621 192.594C161.944 195.042 162.606 198.01 162.606 201.5ZM155.746 201.5C155.746 199.24 155.408 197.333 154.731 195.781C154.064 194.229 153.121 193.052 151.902 192.25C150.684 191.448 149.257 191.047 147.621 191.047C145.986 191.047 144.559 191.448 143.34 192.25C142.121 193.052 141.173 194.229 140.496 195.781C139.83 197.333 139.496 199.24 139.496 201.5C139.496 203.76 139.83 205.667 140.496 207.219C141.173 208.771 142.121 209.948 143.34 210.75C144.559 211.552 145.986 211.953 147.621 211.953C149.257 211.953 150.684 211.552 151.902 210.75C153.121 209.948 154.064 208.771 154.731 207.219C155.408 205.667 155.746 203.76 155.746 201.5Z" fill="#003399"/>
<path d="M102.564 217.5V185.5H115.189C117.606 185.5 119.668 185.932 121.377 186.797C123.096 187.651 124.403 188.865 125.299 190.438C126.205 192 126.658 193.839 126.658 195.953C126.658 198.078 126.2 199.906 125.283 201.437C124.366 202.958 123.038 204.125 121.299 204.938C119.57 205.75 117.476 206.156 115.017 206.156H106.564V200.719H113.924C115.215 200.719 116.288 200.542 117.142 200.188C117.997 199.833 118.632 199.302 119.049 198.594C119.476 197.885 119.689 197.005 119.689 195.953C119.689 194.891 119.476 193.995 119.049 193.266C118.632 192.536 117.991 191.984 117.127 191.609C116.273 191.224 115.195 191.031 113.892 191.031H109.33V217.5H102.564ZM119.846 202.938L127.799 217.5H120.33L112.549 202.938H119.846Z" fill="#003399"/>
<path d="M88.4723 185.5H95.2379V206.281C95.2379 208.615 94.6806 210.656 93.566 212.406C92.4619 214.156 90.915 215.521 88.9254 216.5C86.9358 217.469 84.6181 217.953 81.9723 217.953C79.316 217.953 76.9931 217.469 75.0035 216.5C73.014 215.521 71.4671 214.156 70.3629 212.406C69.2587 210.656 68.7067 208.615 68.7067 206.281V185.5H75.4723V205.703C75.4723 206.922 75.7379 208.005 76.2692 208.953C76.8108 209.901 77.5712 210.646 78.5504 211.188C79.5296 211.729 80.6702 212 81.9723 212C83.2848 212 84.4254 211.729 85.3942 211.188C86.3733 210.646 87.1285 209.901 87.6598 208.953C88.2015 208.005 88.4723 206.922 88.4723 205.703V185.5Z" fill="#003399"/>
<path d="M40.0052 217.5V185.5H61.5677V191.078H46.7709V198.703H60.4584V204.281H46.7709V211.922H61.6302V217.5H40.0052Z" fill="#003399"/>
</g>
<defs>
<clipPath id="clip0_106_33">
<rect width="329" height="318" fill="white"/>
</clipPath>
</defs>
</svg>
