<svg width="64" height="64" viewBox="0 0 64 64" fill="none" xmlns="http://www.w3.org/2000/svg">
<path fill-rule="evenodd" clip-rule="evenodd" d="M32 64C49.6731 64 64 49.6731 64 32C64 14.3269 49.6731 0 32 0C14.3269 0 0 14.3269 0 32C0 49.6731 14.3269 64 32 64ZM15.6538 35.3991C16.8686 33.0949 19.0106 30.7845 21.3687 30.1672C23.2661 29.6704 26.5191 29.9962 30.894 35.8049C35.8194 42.3445 40.8109 45.1633 45.5741 43.5823C47.7599 42.8567 49.3705 41.3196 50.4916 39.7691C51.6215 38.2064 52.3995 36.4354 52.8725 34.8654L47.1275 33.1346C46.8048 34.2057 46.2898 35.3401 45.6294 36.2535C44.9601 37.1791 44.2831 37.6889 43.6839 37.8878C42.8772 38.1555 40.3096 38.3331 35.6867 32.1951C30.5132 25.3261 25.0135 23.0107 19.8491 24.3628C15.1453 25.5943 11.9164 29.6227 10.3462 32.6009L15.6538 35.3991Z" fill="currentColor"/>
</svg>
